<svg xmlns="http://www.w3.org/2000/svg" xmlns:xlink="http://www.w3.org/1999/xlink" fill="none" version="1.1" width="16.999969482421875" height="19.245025634765625" viewBox="0 0 16.999969482421875 19.245025634765625"><g style="mix-blend-mode:passthrough"><path d="M3.99994,4.5C3.99994,2.01471,6.01465,0,8.49994,0C10.9852,0,12.9999,2.01471,12.9999,4.5C12.9999,6.98529,10.9852,9,8.49994,9C6.01465,9,3.99994,6.98529,3.99994,4.5ZM17,14.745C17,12.2597,14.9853,10.245,12.5,10.245L4.5,10.245C2.01471,10.245,0,12.2597,0,14.745L0,18.7451C0,19.0212,0.223846,19.245,0.499969,19.245L16.5,19.245C16.7761,19.245,17,19.0212,17,18.7451L17,14.745Z" fill-rule="evenodd" fill="#00B4D6" fill-opacity="1"/></g></svg>